<?xml version="1.0" encoding="UTF-8"?><svg id="Layer_2" xmlns="http://www.w3.org/2000/svg" viewBox="0 0 35.67 25.94"><defs><style>.cls-1{fill:#fff;}</style></defs><g id="Design"><path class="cls-1" d="m30.8,3.24S27.09.33,22.7,0l-.4.79c3.97.97,5.79,2.36,7.69,4.07-3.28-1.67-6.52-3.24-12.16-3.24s-8.88,1.57-12.16,3.24c1.9-1.71,4.07-3.25,7.69-4.07l-.4-.79C8.36.44,4.86,3.24,4.86,3.24c0,0-4.15,6.02-4.86,17.83,4.18,4.83,10.54,4.86,10.54,4.86l1.33-1.77c-2.26-.78-4.8-2.18-7-4.71,2.62,1.99,6.59,4.05,12.97,4.05s10.34-2.07,12.97-4.05c-2.2,2.53-4.75,3.93-7,4.71l1.33,1.77s6.35-.04,10.54-4.86c-.71-11.81-4.86-17.83-4.86-17.83Zm-18.24,14.59c-1.57,0-2.84-1.45-2.84-3.24s1.27-3.24,2.84-3.24,2.84,1.45,2.84,3.24-1.27,3.24-2.84,3.24Zm10.54,0c-1.57,0-2.84-1.45-2.84-3.24s1.27-3.24,2.84-3.24,2.84,1.45,2.84,3.24-1.27,3.24-2.84,3.24Z"/></g></svg>