<?xml version="1.0" encoding="UTF-8"?><svg id="Layer_2" xmlns="http://www.w3.org/2000/svg" viewBox="0 0 27.85 23.03"><defs><style>.cls-1{fill:#fff;}</style></defs><g id="Design"><path class="cls-1" d="m1.71,10.03L18.3,3.19c1.64-.71,7.19-2.99,7.19-2.99,0,0,2.56-1,2.35,1.42-.07,1-.64,4.49-1.21,8.26l-1.78,11.18s-.14,1.64-1.35,1.92-3.2-1-3.56-1.28c-.28-.21-5.34-3.42-7.19-4.98-.5-.43-1.07-1.28.07-2.28,2.56-2.35,5.62-5.27,7.48-7.12.85-.85,1.71-2.85-1.85-.43l-10.04,6.76s-1.14.71-3.27.07S.5,12.24.5,12.24c0,0-1.71-1.07,1.21-2.21h0Z"/></g></svg>